<svg xmlns="http://www.w3.org/2000/svg" version="1.1" xmlns:xlink="http://www.w3.org/1999/xlink" xmlns:svgjs="http://svgjs.dev/svgjs" width="1000" height="1000" viewBox="0 0 1000 1000"><rect width="1000" height="1000" fill="#ffffff"></rect><g transform="matrix(0.7,0,0,0.7,149.57577150126667,374.8677674016287)"><svg viewBox="0 0 396 142" data-background-color="#ffffff" preserveAspectRatio="xMidYMid meet" height="358" width="1000" xmlns="http://www.w3.org/2000/svg" xmlns:xlink="http://www.w3.org/1999/xlink"><g id="tight-bounds" transform="matrix(1,0,0,1,0.2399921445208406,-0.0950637311703133)"><svg viewBox="0 0 395.52 142.19012746234066" height="142.19012746234066" width="395.52"><g><svg viewBox="0 0 395.52 142.19012746234066" height="142.19012746234066" width="395.52"><g><svg viewBox="0 0 395.52 142.19012746234066" height="142.19012746234066" width="395.52"><g id="textblocktransform"><svg viewBox="0 0 395.52 142.19012746234066" height="142.19012746234066" width="395.52" id="textblock"><g><svg viewBox="0 0 395.52 142.19012746234066" height="142.19012746234066" width="395.52"><g transform="matrix(1,0,0,1,0,0)"><svg width="395.52" viewBox="0.49000000953674316 -47.75 168.5399932861328 60.59000015258789" height="142.19012746234066" data-palette-color="#124948"><path d="M56.2-42.53L56.2-42.53Q56.1-42.29 55.81-41.65 55.52-41.02 55.52-40.82L55.52-40.82Q55.52-40.43 55.49-39.82 55.47-39.21 55.86-39.06L55.86-39.06Q55.32-37.94 55.2-36.79 55.08-35.64 55.08-34.45 55.08-33.25 55.03-32.06 54.98-30.86 54.64-29.74L54.64-29.74Q54.83-29.44 54.76-29.03 54.69-28.61 54.98-28.37L54.98-28.37Q54.74-27.98 54.69-27.61 54.64-27.25 54.64-26.86L54.64-26.86Q54.64-26.07 54.79-25.34L54.79-25.34Q54.25-24.56 54.27-23.61 54.3-22.66 54.3-21.68L54.3-21.68Q54.3-20.85 54.08-20.07 53.86-19.29 53.86-18.46L53.86-18.46Q53.86-18.21 53.91-18.02 53.96-17.82 53.96-17.58L53.96-17.58Q53.96-17.33 53.78-17.26 53.61-17.19 53.61-16.8L53.61-16.8Q53.61-14.99 53.37-13.31 53.13-11.62 52.76-9.99 52.39-8.35 51.95-6.69 51.51-5.03 51.17-3.32L51.17-3.32Q50.63-2.73 50.37-2 50.1-1.27 49.41-0.83L49.41-0.83Q48.78 0.78 47.83 2.1 46.88 3.42 45.73 4.59 44.58 5.76 43.36 6.86 42.14 7.96 40.97 9.13L40.97 9.13Q40.48 9.13 40.01 9.16 39.55 9.18 39.06 9.18L39.06 9.18Q37.99 9.18 36.91 9.08 35.84 8.98 34.86 8.74L34.86 8.74Q34.67 8.06 34.11 7.84 33.54 7.62 33.11 7.18L33.11 7.18Q32.62 6.74 32.37 6.2 32.13 5.66 31.35 5.47L31.35 5.47Q31.1 4.74 30.59 3.76 30.08 2.78 29.59 1.76 29.1 0.73 28.74-0.22 28.37-1.17 28.37-1.86L28.37-1.86Q28.37-2.1 28.44-2.32 28.52-2.54 28.56-2.78L28.56-2.78Q28.27-3.13 28.17-3.66 28.08-4.2 28.05-4.76 28.03-5.32 27.93-5.83 27.83-6.35 27.49-6.64L27.49-6.64Q26.9-6.25 26.56-5.66 26.22-5.08 25.95-4.39 25.68-3.71 25.44-3.03 25.2-2.34 24.85-1.76L24.85-1.76Q24.17-1.22 23.66-0.54 23.14 0.15 22.63 0.85 22.12 1.56 21.53 2.17 20.95 2.78 20.17 3.17L20.17 3.17Q19.97 4.05 19.46 4.66 18.95 5.27 18.36 5.79 17.77 6.3 17.24 6.86 16.7 7.42 16.46 8.25L16.46 8.25Q15.63 8.64 14.6 9.4 13.57 10.16 12.52 10.94 11.47 11.72 10.42 12.28 9.38 12.84 8.59 12.84L8.59 12.84Q7.96 12.84 7.4 12.72 6.84 12.6 6.25 12.45 5.66 12.3 5.08 12.18 4.49 12.06 3.86 12.11L3.86 12.11Q2.93 11.13 2.44 9.89 1.95 8.64 1.22 7.57L1.22 7.57Q0.98 6.1 0.73 4.61 0.49 3.13 0.49 1.66L0.49 1.66Q0.49 0.83 0.68 0.12 0.88-0.59 0.88-1.32L0.88-1.32Q0.88-1.56 0.81-1.78 0.73-2 0.68-2.25L0.68-2.25Q1.03-2.93 1.22-3.69 1.42-4.44 1.54-5.22 1.66-6.01 1.81-6.76 1.95-7.52 2.25-8.2L2.25-8.2Q2.34-8.79 1.9-9.08L1.9-9.08Q2.25-9.42 2.34-9.81 2.44-10.21 2.47-10.6 2.49-10.99 2.49-11.43 2.49-11.87 2.59-12.26L2.59-12.26Q2.64-12.45 2.83-12.84L2.83-12.84 3.27-13.67Q3.52-14.11 3.69-14.48 3.86-14.84 3.86-15.04L3.86-15.04Q3.86-15.38 3.66-15.77L3.66-15.77Q3.86-16.75 4.32-17.68 4.79-18.6 5.03-19.58L5.03-19.58Q5.27-20.56 5.32-21.31 5.37-22.07 5.76-23.1L5.76-23.1Q5.81-23.19 5.81-23.34L5.81-23.34Q5.81-23.54 5.66-23.58 5.52-23.63 5.42-23.78L5.42-23.78Q6.01-24.9 6.32-26.2 6.64-27.49 6.86-28.86 7.08-30.22 7.28-31.57 7.47-32.91 7.86-34.13L7.86-34.13Q7.71-35.11 7.62-36.16 7.52-37.21 7.52-38.18L7.52-38.18Q7.52-39.31 7.74-40.48 7.96-41.65 8.74-42.53L8.74-42.53Q9.13-42.53 9.59-42.58 10.06-42.63 10.45-42.63L10.45-42.63Q11.04-42.63 11.72-42.33L11.72-42.33Q12.06-40.77 12.6-39.26 13.13-37.74 13.13-36.04L13.13-36.04Q13.13-35.21 12.94-34.38L12.94-34.38 12.6-32.76Q12.45-31.98 12.35-31.18 12.26-30.37 12.4-29.59L12.4-29.59Q11.87-28.86 11.79-27.91 11.72-26.95 11.72-26.12L11.72-26.12Q11.23-25.44 10.99-24.76 10.74-24.07 10.62-23.36 10.5-22.66 10.4-21.92 10.3-21.19 10.16-20.46L10.16-20.46Q10.06-20.21 9.84-19.87 9.62-19.53 9.62-19.38L9.62-19.38Q9.62-19.04 9.81-18.7L9.81-18.7Q9.72-18.55 9.62-18.48 9.52-18.41 9.47-18.21L9.47-18.21Q9.33-17.68 9.25-17.07 9.18-16.46 9.03-15.92L9.03-15.92Q8.79-14.7 8.37-13.53 7.96-12.35 7.52-11.18L7.52-11.18Q7.52-10.21 7.45-9.62 7.37-9.03 7.25-8.57 7.13-8.11 6.96-7.59 6.79-7.08 6.64-6.3L6.64-6.3Q6.49-5.57 6.37-4.49 6.25-3.42 6.13-2.27 6.01-1.12 5.96-0.02 5.91 1.07 5.91 1.86L5.91 1.86Q5.91 3.27 6.18 4.61 6.45 5.96 7.13 7.18L7.13 7.18 7.96 7.18Q8.25 7.18 8.59 7.2 8.94 7.23 9.23 7.37L9.23 7.37Q9.57 7.28 9.57 7.08L9.57 7.08 9.57 6.69Q9.57 6.54 9.81 6.3L9.81 6.3 10.16 6.35Q10.64 6.35 11.06 6.2 11.47 6.05 11.91 5.81L11.91 5.81Q12.84 4.54 14.09 3.66 15.33 2.78 16.31 1.61L16.31 1.61Q16.55 1.22 16.46 0.68L16.46 0.68Q17.04 0.59 17.36 0.24 17.68-0.1 17.97-0.49 18.26-0.88 18.58-1.25 18.9-1.61 19.43-1.76L19.43-1.76Q19.68-2.2 19.87-2.71 20.07-3.22 20.29-3.71 20.51-4.2 20.83-4.61 21.14-5.03 21.68-5.27L21.68-5.27Q22.51-7.13 23.1-9.11 23.68-11.08 24.85-12.74L24.85-12.74Q24.85-13.38 24.9-13.92 24.95-14.45 24.85-15.04L24.85-15.04Q26.07-16.7 26.42-18.51 26.76-20.31 26.76-22.31L26.76-22.31Q26.76-23.97 27.86-24.61 28.96-25.24 30.47-25.24L30.47-25.24 30.96-25.24Q31.25-25.24 31.49-25.2L31.49-25.2Q31.59-24.85 31.86-24.68 32.13-24.51 32.42-24.32L32.42-24.32 32.42-24.02Q32.42-23.34 32.25-22.78 32.08-22.22 32.08-21.58L32.08-21.58Q32.08-21.29 32.18-20.8L32.18-20.8Q32.67-19.38 32.93-18.21 33.2-17.04 33.2-15.48L33.2-15.48Q33.2-14.16 33.08-12.82 32.96-11.47 32.76-10.16L32.76-10.16Q33.06-9.62 33.06-9.03L33.06-9.03Q33.06-8.64 32.98-8.23 32.91-7.81 32.91-7.42L32.91-7.42Q32.91-6.59 33.18-5.79 33.45-4.98 33.76-4.2 34.08-3.42 34.33-2.64 34.57-1.86 34.52-1.07L34.52-1.07Q35.35-0.05 36.01 1.05 36.67 2.15 37.65 2.98L37.65 2.98Q38.04 3.08 38.28 3.08L38.28 3.08Q38.57 3.08 38.77 3 38.96 2.93 39.14 2.86 39.31 2.78 39.5 2.76 39.7 2.73 40.09 2.78L40.09 2.78Q40.97 2.15 41.7 1.34 42.43 0.54 43.09-0.29 43.75-1.12 44.43-2 45.12-2.88 45.85-3.66L45.85-3.66Q47.27-7.18 48.14-10.69 49.02-14.21 49.22-18.02L49.22-18.02Q49.22-18.55 49.46-18.55 49.71-18.55 49.9-18.9L49.9-18.9 49.9-20.26Q49.9-21.83 50.07-23.39 50.24-24.95 50.78-26.46L50.78-26.46Q50.63-27.05 50.63-27.64L50.63-27.64Q50.63-28.91 50.85-30.1 51.07-31.3 51.07-32.52L51.07-32.52Q51.07-33.15 50.95-33.81 50.83-34.47 50.44-35.01L50.44-35.01 50.39-35.3Q50.39-35.6 50.61-35.79 50.83-35.99 50.93-36.23L50.93-36.23Q50.68-36.87 50.76-37.55 50.83-38.23 50.83-38.92L50.83-38.92Q50.83-39.31 50.73-39.75 50.63-40.19 50.24-40.43L50.24-40.43Q50.68-40.92 50.88-41.7 51.07-42.48 51.15-43.36 51.22-44.24 51.22-45.09 51.22-45.95 51.32-46.53L51.32-46.53Q51.76-47.02 52.32-47.39 52.88-47.75 53.56-47.75L53.56-47.75Q54.44-47.75 54.83-47.14 55.22-46.53 55.42-45.68 55.62-44.82 55.74-43.95 55.86-43.07 56.2-42.53ZM95.16-3.56L95.16-3.56Q95.02-2.88 94.55-2.47 94.09-2.05 93.45-1.81 92.82-1.56 92.16-1.49 91.5-1.42 90.96-1.42L90.96-1.42Q90.72-1.42 90.5-1.44 90.28-1.46 90.04-1.46L90.04-1.46Q89.79-1.46 89.79-1.22 89.79-0.98 89.55-0.88L89.55-0.88Q89.3-0.98 89.06-1.03 88.82-1.07 88.57-1.07L88.57-1.07Q88.23-1.07 87.91-1.03 87.6-0.98 87.3-0.98L87.3-0.98Q86.91-0.98 86.74-1.07 86.57-1.17 86.45-1.29 86.33-1.42 86.2-1.56 86.08-1.71 85.84-1.81L85.84-1.81Q85.5-1.95 85.28-1.86 85.06-1.76 84.62-2.15L84.62-2.15Q84.03-2.64 83.62-3.34 83.2-4.05 82.81-4.83 82.42-5.62 81.98-6.4 81.54-7.18 80.95-7.76L80.95-7.76 80.56-7.76Q79.69-7.76 79.34-7.03L79.34-7.03Q79.1-7.18 78.85-7.4 78.61-7.62 78.32-7.76L78.32-7.76Q77.19-7.42 75.97-7.18 74.75-6.93 73.53-6.93L73.53-6.93 72.85-6.93Q72.56-6.93 72.21-7.03L72.21-7.03Q71.73-6.84 71.34-6.57 70.94-6.3 70.46-6.3L70.46-6.3Q70.16-6.3 69.77-6.49L69.77-6.49Q69.48-6.49 69.5-6.25 69.53-6.01 69.19-6.01L69.19-6.01 68.75-6.01Q68.06-6.01 67.4-5.96 66.75-5.91 66.06-5.91L66.06-5.91Q65.13-5.91 64.16-6.15L64.16-6.15Q63.91-6.01 63.62-6.01L63.62-6.01Q63.43-5.91 63.33-5.69 63.23-5.47 63.13-5.3 63.03-5.13 62.86-5 62.69-4.88 62.4-4.93L62.4-4.93Q62.3-4.35 61.91-4 61.52-3.66 61.52-2.98L61.52-2.98Q60.98-2.69 60.64-2.25 60.3-1.81 59.96-1.32 59.62-0.83 59.25-0.39 58.88 0.05 58.35 0.29L58.35 0.29Q58.1 0.59 58.2 1.22L58.2 1.22Q57.66 1.66 56.88 2 56.1 2.34 55.42 2.34L55.42 2.34Q54 2.34 53.46 0.83L53.46 0.83Q53.46 0.34 53.54-0.22 53.61-0.78 53.76-1.29 53.9-1.81 54.2-2.22 54.49-2.64 55.03-2.83L55.03-2.83Q55.03-3.27 54.73-3.44 54.44-3.61 54.49-4.05L54.49-4.05Q55.81-4.69 56.78-5.71 57.76-6.74 58.57-7.89 59.37-9.03 60.2-10.21 61.03-11.38 62.06-12.3L62.06-12.3 62.06-13.33Q63.52-14.89 63.96-16.85L63.96-16.85Q64.5-16.94 64.67-17.33 64.84-17.72 64.84-18.26L64.84-18.26Q65.09-18.26 65.16-18.48 65.23-18.7 65.57-18.6L65.57-18.6Q66.01-19.78 66.55-20.75 67.09-21.73 67.62-22.73 68.16-23.73 68.58-24.8 68.99-25.88 69.19-27.2L69.19-27.2Q69.87-27.25 69.94-27.86 70.02-28.47 70.11-28.96L70.11-28.96Q70.85-29.64 71.21-30.57 71.58-31.49 71.87-32.5 72.17-33.5 72.53-34.5 72.9-35.5 73.58-36.28L73.58-36.28 73.58-36.43Q73.58-36.67 73.39-36.74 73.19-36.82 73.19-37.06L73.19-37.06Q73.24-37.11 73.24-37.16L73.24-37.16Q73.83-37.4 74.12-37.96 74.41-38.53 75-38.77L75-38.77Q76.02-37.94 76.8-37.77 77.59-37.6 78.85-37.5L78.85-37.5Q79.49-36.82 79.56-35.86 79.64-34.91 79.88-33.98L79.88-33.98Q80.27-32.42 80.73-30.93 81.2-29.44 81.44-27.88L81.44-27.88Q81.59-26.95 81.98-26.12 82.37-25.29 82.52-24.41L82.52-24.41Q82.61-23.73 82.52-22.88 82.42-22.02 82.71-21.39L82.71-21.39 83.05-20.61Q83.3-20.07 83.47-19.48 83.64-18.9 83.79-18.31L83.79-18.31Q84.18-16.85 84.49-15.16 84.81-13.48 85.5-12.11L85.5-12.11Q85.74-11.62 86.25-11.43 86.77-11.23 87.4-11.16 88.03-11.08 88.64-11.11 89.26-11.13 89.69-11.13L89.69-11.13 90.18-11.13Q90.48-11.13 90.77-11.04L90.77-11.04Q90.96-10.64 90.96-10.35L90.96-10.35Q90.96-9.77 90.57-9.42 90.18-9.08 90.18-8.64L90.18-8.64Q90.18-8.4 90.38-8.11L90.38-8.11Q90.18-8.15 89.79-8.15L89.79-8.15Q88.67-8.15 87.6-7.76L87.6-7.76Q87.99-6.93 88.64-6.37 89.3-5.81 90.04-5.32L90.04-5.32Q90.52-5.71 91.06-5.71L91.06-5.71Q91.65-5.71 92.16-5.44 92.67-5.18 93.26-5.18L93.26-5.18Q93.7-5.18 93.89-5.32L93.89-5.32Q94.28-4.88 94.53-4.42 94.77-3.96 95.16-3.56ZM79.88-11.38L79.88-11.38Q79.78-12.21 79.56-12.57 79.34-12.94 79.2-13.48L79.2-13.48Q79-14.16 78.93-14.94 78.85-15.72 78.71-16.46L78.71-16.46Q78.37-18.12 77.95-19.78 77.54-21.44 76.9-23L76.9-23Q77.1-23.29 77.1-23.54L77.1-23.54 77.1-23.68Q76.66-24.17 76.46-24.88 76.27-25.59 76.1-26.29 75.93-27 75.66-27.61 75.39-28.22 74.8-28.61L74.8-28.61Q74.66-28.32 74.66-27.93L74.66-27.93Q74.66-27.59 74.73-27.29 74.8-27 74.8-26.66L74.8-26.66Q74.31-26.42 74.09-25.9 73.87-25.39 73.39-25.1L73.39-25.1Q73-23.54 72.26-22.14 71.53-20.75 70.73-19.38 69.92-18.02 69.19-16.63 68.45-15.23 68.02-13.72L68.02-13.72Q67.38-13.28 67.16-12.6 66.94-11.91 66.94-11.23L66.94-11.23Q67.38-10.99 67.94-10.96 68.5-10.94 69.04-10.94 69.58-10.94 70.07-10.84 70.55-10.74 70.94-10.35L70.94-10.35Q71.58-10.55 72.34-10.62 73.09-10.69 73.58-11.04L73.58-11.04Q74.56-10.69 75.68-10.69L75.68-10.69Q76.27-10.69 76.83-10.79 77.39-10.89 77.93-11.04L77.93-11.04Q78.37-10.94 78.61-10.72 78.85-10.5 79.34-10.55L79.34-10.55Q79.59-10.74 79.64-10.96 79.69-11.18 79.88-11.38ZM121.38-12.55L121.38-12.55Q121.38-12.01 120.99-11.74 120.6-11.47 120.6-11.04L120.6-11.04Q120.6-10.84 120.8-10.55L120.8-10.55Q120.11-10.55 119.87-10.11 119.62-9.67 119.38-9.13L119.38-9.13 118.75-9.13Q118.5-9.13 118.35-9.03 118.21-8.94 118.09-8.76 117.96-8.59 117.77-8.25L117.77-8.25Q116.84-8.06 115.99-7.64 115.13-7.23 114.33-6.76 113.52-6.3 112.69-5.83 111.86-5.37 110.98-5.08L110.98-5.08Q110.54-4.35 109.71-3.91L109.71-3.91 109.57-3.91Q109.32-3.86 109.15-3.98 108.98-4.1 108.74-4.1L108.74-4.1Q108.59-4.1 108.54-4.05L108.54-4.05Q107.08-3.08 105.27-3.08L105.27-3.08Q104.78-3.08 104.34-3.15 103.9-3.22 103.41-3.22L103.41-3.22Q103.27-3.22 103.22-3.13L103.22-3.13 103.12-2.93Q103.07-2.83 103-2.73 102.92-2.64 102.63-2.64L102.63-2.64Q102.09-2.64 101.56-2.78 101.02-2.93 100.43-2.83L100.43-2.83Q99.31-3.47 98.68-4.05 98.04-4.64 97.5-5.81L97.5-5.81Q97.26-6.35 96.85-6.84 96.43-7.32 96.24-7.91L96.24-7.91Q96.19-8.11 96.09-8.62 95.99-9.13 95.89-9.72 95.8-10.3 95.72-10.84 95.65-11.38 95.65-11.57L95.65-11.57Q95.65-12.16 95.72-12.72 95.8-13.28 95.89-13.87L95.89-13.87Q96.19-15.72 96.31-17.6 96.43-19.48 97.11-21.24L97.11-21.24Q97.02-21.78 97.02-22.27L97.02-22.27 97.02-23.34Q97.02-24.27 96.77-24.9L96.77-24.9Q97.16-25.54 97.16-26.32L97.16-26.32Q97.16-27.2 96.43-27.34L96.43-27.34 96.43-27.49Q96.43-28.52 95.75-29.1L95.75-29.1Q95.75-30.81 96.6-31.67 97.46-32.52 98.87-33.15L98.87-33.15Q99.07-33.45 99.02-33.64L99.02-33.64Q99.36-33.54 99.65-33.45 99.95-33.35 100.24-33.35L100.24-33.35Q100.73-33.35 101.12-33.5L101.12-33.5Q101.26-32.91 101.87-32.79 102.49-32.67 102.88-32.47L102.88-32.47 102.88-31.84Q102.88-30.32 103.61-28.96L103.61-28.96Q103.41-28.56 103.36-28.13 103.32-27.69 103.32-27.29L103.32-27.29Q103.32-26.71 103.36-26.12 103.41-25.54 103.41-25L103.41-25Q103.41-24.41 103.29-23.83 103.17-23.24 102.73-22.8L102.73-22.8Q102.68-22.17 102.66-21.36 102.63-20.56 102.56-19.73 102.49-18.9 102.29-18.12 102.09-17.33 101.7-16.85L101.7-16.85Q101.66-16.11 101.63-15.36 101.61-14.6 101.61-13.92L101.61-13.92Q101.61-12.84 101.73-11.38 101.85-9.91 102.39-8.94L102.39-8.94Q102.63-8.54 103.34-8.35 104.05-8.15 104.49-8.15L104.49-8.15Q105.02-8.15 105.59-8.33 106.15-8.5 106.39-8.94L106.39-8.94Q106.68-8.89 106.78-8.64 106.88-8.4 107.12-8.25L107.12-8.25Q109.91-9.42 112.69-10.5 115.47-11.57 118.16-12.99L118.16-12.99Q118.55-12.79 118.99-12.79L118.99-12.79Q119.48-12.79 119.97-12.89 120.45-12.99 120.94-12.99L120.94-12.99 121.28-12.99Q121.38-12.7 121.38-12.55ZM131.58-6.69L131.58-6.69Q131.34-6.3 131-5.98 130.66-5.66 130.36-5.32L130.36-5.32Q130.02-5.18 129.61-5.18 129.19-5.18 128.83-5.2 128.46-5.22 128.14-5.2 127.82-5.18 127.63-4.98L127.63-4.98Q127.24-5.08 127.04-5.35 126.85-5.62 126.36-5.66L126.36-5.66Q126.16-5.71 125.97-5.66L125.97-5.66Q125.24-6.49 124.63-7.42 124.02-8.35 123.48-9.18L123.48-9.18Q123.43-10.99 123.19-12.84L123.19-12.84Q123.14-13.28 123.04-13.72 122.94-14.16 122.89-14.55L122.89-14.55Q122.89-15.04 122.97-15.5 123.04-15.97 123.09-16.36L123.09-16.36Q123.28-17.77 123.53-19.14 123.77-20.51 123.97-21.92L123.97-21.92Q124.16-23.19 124.16-24.58 124.16-25.98 123.72-27.2L123.72-27.2 123.67-27.44Q123.77-27.83 123.89-28.1 124.02-28.37 124.06-28.71L124.06-28.71Q124.16-29.25 123.82-29.49L123.82-29.49Q123.97-29.88 124.31-30 124.65-30.13 124.7-30.57L124.7-30.57Q124.75-30.76 124.7-30.96L124.7-30.96Q125.09-31.1 125.51-31.23 125.92-31.35 126.31-31.25L126.31-31.25Q126.95-31.15 127.43-30.83 127.92-30.52 128.36-30.13L128.36-30.13Q129.14-27.78 129-25.17 128.85-22.56 128.51-19.92 128.17-17.29 128.07-14.77 127.97-12.26 128.85-10.11L128.85-10.11 128.95-10.06Q129.19-10.01 129.34-10.23 129.48-10.45 129.73-10.4L129.73-10.4Q129.92-10.3 129.97-10.3L129.97-10.3Q130.17-9.33 130.61-8.45 131.05-7.57 131.58-6.69ZM169.03-24.07L169.03-24.07Q169.03-23.58 168.69-23.44 168.35-23.29 168.35-22.85L168.35-22.85Q168.35-22.71 168.45-22.61 168.54-22.51 168.54-22.31L168.54-22.31 168.54-22.12Q167.96-19.29 166.86-17.19 165.76-15.09 164.3-13.33 162.83-11.57 161-10.01 159.17-8.45 157.07-6.74L157.07-6.74Q156.48-6.25 155.87-5.76 155.26-5.27 154.73-4.74L154.73-4.74 153.65-3.71Q153.6-3.66 153.12-3.49 152.63-3.32 152.53-3.27L152.53-3.27Q151.85-2.98 151.09-2.59 150.33-2.2 149.79-1.61L149.79-1.61Q148.82-1.61 148.13-1.32 147.45-1.03 146.62-0.54L146.62-0.54Q146.38-0.54 146.21-0.63 146.03-0.73 145.84-0.83 145.64-0.93 145.42-0.95 145.2-0.98 144.86-0.88L144.86-0.88Q144.28-1.86 143.59-2.54 142.91-3.22 141.74-3.37L141.74-3.37Q141.59-4.2 141.05-4.66 140.52-5.13 139.98-5.66L139.98-5.66Q139.88-5.96 139.83-6.35 139.78-6.74 139.64-7.08 139.49-7.42 139.25-7.67 139-7.91 138.56-7.91L138.56-7.91Q138.52-8.2 138.81-8.2 139.1-8.2 139.1-8.45L139.1-8.45Q139.1-8.74 139-9.03 138.91-9.33 138.91-9.67L138.91-9.67Q138.91-9.91 138.95-10.11 139-10.3 139.1-10.55L139.1-10.55Q138.95-11.87 138.95-13.23L138.95-13.23Q138.95-15.87 139.32-18.43 139.69-21 139.69-23.63L139.69-23.63Q139.69-24.8 139.57-25.98 139.44-27.15 139.1-28.27L139.1-28.27Q137.98-28.03 136.86-27.71 135.73-27.39 134.76-26.86L134.76-26.86Q134.22-27.2 133.61-27.27 133-27.34 132.41-27.54L132.41-27.54Q132.07-28.22 132.07-28.96L132.07-28.96Q132.07-29.64 132.31-30.27L132.31-30.27 132.8-31.54Q133.97-31.79 135.12-32.28 136.27-32.76 137.44-33.15L137.44-33.15Q137.83-33.25 138.44-33.4 139.05-33.54 139.3-33.64L139.3-33.64Q139.64-33.79 139.76-34.2 139.88-34.62 140.13-34.91L140.13-34.91 140.96-34.91Q141.25-34.91 141.59-34.89 141.93-34.86 142.23-34.72L142.23-34.72Q143.98-35.16 145.74-35.28 147.5-35.4 149.36-35.64L149.36-35.64Q149.55-35.64 149.94-35.69L149.94-35.69 150.77-35.84Q151.21-35.94 151.58-36.01 151.94-36.08 152.09-36.08L152.09-36.08Q152.24-36.08 152.24-35.94L152.24-35.94 153.07-35.94Q155.17-35.94 157.17-35.4L157.17-35.4 161.17-34.33Q162-33.64 162.83-33.01 163.66-32.37 164.69-31.88L164.69-31.88Q164.93-31.1 165.44-30.64 165.96-30.18 166.59-29.64L166.59-29.64Q166.84-29 167.25-28.3 167.67-27.59 168.06-26.86 168.45-26.12 168.74-25.42 169.03-24.71 169.03-24.07ZM164.49-23.34L164.49-23.34Q163.95-24.46 163.47-25.68 162.98-26.9 162.25-27.88L162.25-27.88Q161.37-28.13 160.46-28.49 159.56-28.86 159.22-29.79L159.22-29.79Q159.12-29.74 158.88-29.74L158.88-29.74Q158.44-29.74 158.1-30.08 157.75-30.42 157.31-30.52L157.31-30.52Q156.92-30.57 156.26-30.66 155.61-30.76 154.87-30.81 154.14-30.86 153.43-30.91 152.72-30.96 152.33-30.96L152.33-30.96Q151.94-30.96 151.53-30.93 151.11-30.91 150.67-30.86L150.67-30.86Q150.28-30.86 150.19-30.74 150.09-30.62 149.79-30.52L149.79-30.52Q149.55-30.62 149.26-30.62L149.26-30.62 148.67-30.62Q147.65-30.62 146.65-30.3 145.64-29.98 144.67-29.44L144.67-29.44 144.67-29.25Q144.67-28.86 145.01-28.81 145.35-28.76 145.4-28.42L145.4-28.42Q145.16-28.42 145.01-28.39 144.86-28.37 144.86-28.03L144.86-28.03Q144.86-27.54 144.99-26.95 145.11-26.37 145.11-25.78L145.11-25.78Q145.11-25.34 145.01-24.76 144.91-24.17 144.52-23.83L144.52-23.83Q145.01-23.39 145.01-22.66L145.01-22.66Q145.01-22.17 144.81-21.63 144.62-21.09 144.33-20.7L144.33-20.7Q144.23-18.65 143.94-16.55 143.64-14.45 143.64-12.4L143.64-12.4Q143.64-11.38 143.76-10.4 143.89-9.42 144.18-8.45L144.18-8.45Q144.72-7.91 145.33-7.62 145.94-7.32 146.62-7.03L146.62-7.03 146.62-6.88Q146.62-6.74 146.43-6.59 146.23-6.45 146.23-6.2L146.23-6.2Q146.23-6.01 146.43-6.01L146.43-6.01Q148.48-6.59 150.28-7.42 152.09-8.25 153.65-9.67L153.65-9.67Q153.8-9.81 153.95-9.81L153.95-9.81Q154.04-9.81 154.21-9.77 154.38-9.72 154.53-9.67L154.53-9.67 154.48-9.86Q154.48-10.16 154.65-10.4 154.82-10.64 155.07-10.84L155.07-10.84 155.56-11.28Q155.8-11.52 155.95-11.77L155.95-11.77Q156.34-11.87 156.51-12.16 156.68-12.45 157.12-12.45L157.12-12.45Q157.22-12.99 157.66-13.26 158.1-13.53 158.19-14.06L158.19-14.06Q159.17-14.6 159.93-15.38 160.68-16.16 161.34-17.04 162-17.92 162.59-18.87 163.17-19.82 163.81-20.7L163.81-20.7 163.81-20.9Q163.81-21.68 164.08-22.17 164.35-22.66 164.49-23.34Z" opacity="1" transform="matrix(1,0,0,1,0,0)" fill="#124948" class="wordmark-text-0" data-fill-palette-color="primary" id="text-0"></path></svg></g></svg></g></svg></g></svg></g></svg></g><defs></defs></svg><rect width="395.52" height="142.19012746234066" fill="none" stroke="none" visibility="hidden"></rect></g></svg></g></svg>